<?xml version="1.0" encoding="UTF-8"?>
<svg xmlns="http://www.w3.org/2000/svg" version="1.1" viewBox="0 0 33 33">
  <path d="M13.29,30l-.32-.08c-.52-.13-1.05-.3-1.58-.51l-.31-.12-.3-3.59c-.47-.29-.93-.61-1.35-.97l-3.54.83-.21-.25c-.34-.41-.67-.86-.98-1.34l-.18-.27,1.89-3.08c-.21-.51-.39-1.04-.51-1.57l-3.35-1.39-.02-.32c-.02-.27-.03-.55-.03-.82s.01-.55.03-.82l.02-.32,3.35-1.39c.13-.53.3-1.06.51-1.57l-1.89-3.08.18-.27c.31-.48.64-.93.98-1.34l.21-.25,3.54.83c.42-.35.87-.68,1.35-.97l.3-3.59.31-.12c.53-.21,1.07-.38,1.58-.51l.32-.08,2.37,2.73c.55-.04,1.11-.04,1.67,0l2.37-2.73.32.08c.51.13,1.05.3,1.58.51l.31.12.3,3.59c.47.29.93.61,1.35.97l3.54-.83.21.25c.34.41.67.86.98,1.34l.18.27-1.89,3.08c.21.51.39,1.04.51,1.57l3.35,1.39.02.32c.02.27.03.55.03.82s-.01.55-.03.82l-.02.32-3.35,1.39c-.13.53-.3,1.06-.51,1.57l1.89,3.08-.18.27c-.31.48-.64.93-.98,1.34l-.21.25-3.54-.83c-.42.35-.87.68-1.35.97l-.3,3.59-.31.12c-.53.21-1.07.38-1.58.51l-.32.08-2.37-2.73c-.55.04-1.12.04-1.67,0l-2.37,2.73h0ZM17.78,26.17l2.29,2.64c.28-.08.55-.17.84-.27l.29-3.48.24-.14c.58-.33,1.13-.73,1.62-1.17l.21-.18,3.43.8c.18-.22.35-.46.52-.71l-1.83-2.98.11-.25c.27-.61.48-1.25.62-1.89l.06-.27,3.25-1.34c0-.14.01-.29.01-.44s0-.29-.01-.44l-3.25-1.34-.06-.27c-.14-.64-.35-1.28-.62-1.89l-.11-.25,1.83-2.98c-.17-.24-.34-.48-.52-.71l-3.43.8-.21-.18c-.5-.44-1.04-.83-1.62-1.17l-.24-.14-.29-3.48c-.28-.1-.56-.19-.84-.27l-2.29,2.64-.28-.02c-.67-.06-1.35-.06-2.01,0l-.28.02-2.29-2.64c-.28.08-.55.17-.84.27l-.29,3.48-.24.14c-.59.33-1.13.73-1.62,1.17l-.21.18-3.43-.8c-.18.22-.35.46-.52.71l1.83,2.98-.11.25c-.27.61-.48,1.24-.62,1.89l-.06.27-3.25,1.34c0,.14-.01.29-.01.44s0,.29.01.44l3.25,1.34.06.27c.14.64.35,1.28.62,1.89l.11.25-1.83,2.98c.17.24.34.48.52.71l3.43-.8.21.18c.5.44,1.04.83,1.62,1.17l.24.14.29,3.48c.28.1.56.19.84.27l2.29-2.64.28.02c.67.07,1.35.07,2.01,0l.28-.02ZM16.5,22.76c-3.48,0-6.32-2.81-6.32-6.26s2.83-6.26,6.32-6.26,6.32,2.81,6.32,6.26-2.83,6.26-6.32,6.26ZM16.5,11.29c-2.9,0-5.27,2.34-5.27,5.21s2.36,5.21,5.27,5.21,5.27-2.34,5.27-5.21-2.36-5.21-5.27-5.21Z"/>
</svg>