<?xml version="1.0" encoding="UTF-8"?>
<svg xmlns="http://www.w3.org/2000/svg" version="1.1" viewBox="0 0 33 33">
  <path d="M24.28,18.52c2.08-2.05,3.22-4.77,3.22-7.67s-1.14-5.62-3.22-7.67c-4.29-4.24-11.27-4.24-15.55,0-2.08,2.05-3.22,4.77-3.22,7.67s1.14,5.62,3.22,7.67c2,1.98,4.59,3.02,7.22,3.15v4.76h-4.99c-.31,0-.56.25-.56.55s.25.55.56.55h4.99v4.92c0,.31.25.55.56.55s.56-.25.56-.55v-4.92h4.99c.31,0,.56-.25.56-.55s-.25-.55-.56-.55h-4.99v-4.76c2.62-.13,5.22-1.17,7.22-3.15h0ZM6.62,10.84c0-2.6,1.03-5.05,2.89-6.89,1.92-1.9,4.46-2.85,6.99-2.85s5.06.95,6.99,2.85c1.87,1.84,2.89,4.29,2.89,6.89s-1.03,5.05-2.89,6.89c-3.85,3.8-10.12,3.8-13.97,0-1.87-1.84-2.89-4.29-2.89-6.89Z"/>
</svg>