<?xml version="1.0" encoding="UTF-8"?>
<svg xmlns="http://www.w3.org/2000/svg" version="1.1" viewBox="0 0 33 33">
  <path d="M27.91,19.51l-3.91-3.91,5.14-5.14c1.48-1.48,1.79-3.78.76-5.6-.14-.25-.46-.34-.71-.2-.25.14-.34.46-.2.71.8,1.41.56,3.2-.59,4.35l-5.14,5.14-5.13-5.13,5.14-5.14c1.15-1.15,2.94-1.39,4.35-.59.25.14.57.05.71-.2.14-.25.05-.57-.2-.71-1.82-1.03-4.12-.72-5.6.76l-5.14,5.14-3.91-3.91c-.2-.2-.53-.2-.73,0-.2.2-.2.53,0,.73l3.91,3.91-5.41,5.41-.35-.35c-.73-.73-1.91-.73-2.64,0l-3.31,3.31c-.73.73-.73,1.91,0,2.64l.35.35-2.66,2.66c-.2.2-.2.53,0,.73l5.87,5.87c.2.2.53.2.73,0l2.66-2.66.35.35c.73.73,1.91.73,2.64,0l3.31-3.31c.73-.73.73-1.91,0-2.64l-.35-.35,5.41-5.41,3.91,3.91c.2.2.53.2.73,0,.2-.2.2-.53,0-.73h0ZM17.47,24l-3.31,3.31c-.33.33-.85.33-1.18,0l-4.26-4.26c-.2-.2-.53-.2-.73,0-.2.2-.2.53,0,.73l3.18,3.18-2.3,2.3-5.13-5.13,2.66-2.66c.2-.2.2-.53,0-.73,0,0,0,0-.01,0l-.7-.7c-.32-.32-.32-.85,0-1.18l3.31-3.31c.33-.33.85-.33,1.18,0l.7.7s0,0,0,.01c0,0,0,0,.01,0l5.84,5.84s0,0,0,.01c0,0,0,0,.01,0l.7.7c.32.32.32.85,0,1.18h0ZM17.13,21.01l-5.13-5.13,5.41-5.41,5.13,5.13-5.41,5.41Z"/>
</svg>