<?xml version="1.0" encoding="UTF-8"?>
<svg xmlns="http://www.w3.org/2000/svg" version="1.1" viewBox="0 0 33 33">
  <path d="M16.5,4c-6.89,0-12.5,5.61-12.5,12.5s5.61,12.5,12.5,12.5,12.5-5.61,12.5-12.5-5.6-12.5-12.5-12.5ZM16.5,27.75c-6.21,0-11.25-5.05-11.25-11.25s5.05-11.25,11.25-11.25,11.25,5.05,11.25,11.25-5.05,11.25-11.25,11.25h0ZM18.6,10.43c-.84-.54-1.97-.71-3.02-.47-1.05.25-1.93.9-2.47,1.82-.14.24-.06.55.18.69.24.14.55.06.69-.18.52-.88,1.29-1.22,1.83-1.35.78-.18,1.64-.06,2.24.33.6.38.98.99,1.07,1.68.08.65-.12,1.29-.59,1.79-2.14,2.32-3,3.63-2.74,5.66.03.25.25.44.5.44h.06c.28-.03.47-.29.44-.56-.21-1.62.44-2.64,2.48-4.85.67-.73.97-1.65.85-2.6-.12-.98-.68-1.85-1.53-2.4h0ZM16.35,21.91c-.47,0-.86.38-.86.86s.38.85.86.85.86-.38.86-.85-.38-.86-.86-.86Z"/>
</svg>