<svg fill="none" height="33" viewBox="0 0 33 33" width="33" xmlns="http://www.w3.org/2000/svg"><path d="m25.4079 22.0108-3.9088-3.9089 5.1392-5.1394c1.4775-1.4775 1.7888-3.78039.756-5.59895-.1433-.25202-.4595-.33603-.7066-.19766-.2471.14331-.336.45958-.1977.70666.8006 1.41334.5584 3.20225-.588 4.35365l-5.1391 5.1394-5.1293-5.1295 5.1392-5.1394c1.1464-1.14648 2.9352-1.38862 4.3534-.58806.2471.14331.5683.05435.7066-.19767.1433-.25203.0544-.5683-.1976-.70667-1.8185-1.03282-4.1212-.71655-5.5987.75608l-5.1392 5.13942-3.9087-3.90893c-.2026-.20261-.5287-.20261-.7313 0s-.2026.52877 0 .73138l3.9087 3.90895-5.40599 5.4062-.35084-.3509c-.7264-.7264-1.91236-.7264-2.6437 0l-3.30585 3.3061c-.7264.7264-.7264 1.9124 0 2.6438l.35085.3508-2.658519 2.6636c-.2026012.2026-.2026012.5288 0 .7314l5.865539 5.8658c.2026.2027.52874.2027.73134 0l2.66346-2.6635.35084.3508c.72637.7264 1.91237.7264 2.64367 0l3.3059-3.306c.7264-.7264.7264-1.9125 0-2.6438l-.3509-.3509 5.406-5.4062 3.9087 3.9089c.2026.2026.5288.2026.7314 0s.2026-.5288 0-.7314zm-10.4364 4.4871-3.3059 3.306c-.3261.3262-.8499.3262-1.1761 0l-4.25953-4.2597c-.2026-.2026-.52874-.2026-.73134 0s-.2026.5287 0 .7313l3.17737 3.1776-2.29778 2.2979-5.12926-5.1295 2.66346-2.6636c.2026-.2026.2026-.5288 0-.7314 0 0-.00989-.0049-.01483-.0099l-.70169-.7017c-.32119-.3212-.32119-.85 0-1.1761l3.30585-3.3061c.32614-.3261.84994-.3261 1.17608 0l.70169.7018s.00494.0099.00988.0148.00988.0049.01482.0099l5.84088 5.8411s.0049.0099.0098.0148c.005.005.0099.005.0149.0099l.7017.7017c.3211.3212.3211.85 0 1.1762zm-.346-2.9897-5.12921-5.1295 5.40601-5.4063 5.1292 5.1295z" fill="#52b2d6"/></svg>