<svg fill="none" height="33" viewBox="0 0 33 33" width="33" xmlns="http://www.w3.org/2000/svg"><path d="m12.4978 8.00439c-6.89077 0-12.49779237 5.60701-12.49779237 12.49781s5.60702237 12.4978 12.49779237 12.4978c6.8908 0 12.4978-5.607 12.4978-12.4978s-5.6026-12.49781-12.4978-12.49781zm0 24.07361c-6.38345 0-11.571376-5.1924-11.571376-11.5714s5.192346-11.57579 11.571376-11.57579c6.379 0 11.5714 5.19239 11.5714 11.57139s-5.1924 11.5714-11.5714 11.5714zm1.9367-18.246c-.7721-.4941-1.8088-.6529-2.7749-.4279-.9617.2294-1.769.8249-2.27191 1.6763-.12793.2206-.05735.503.16323.6353.22057.1279.50288.0574.63528-.1632.4764-.8117 1.1823-1.125 1.6852-1.2441.719-.1676 1.5087-.0529 2.0601.3044.5471.3529.9044.9132.9838 1.5441.075.5999-.1147 1.1867-.5382 1.6454-1.9675 2.1352-2.7528 3.3307-2.5146 5.2012.0309.2338.2294.4059.4588.4059h.0574c.2559-.0309.4323-.2647.4014-.5162-.1897-1.4911.4015-2.4219 2.2764-4.46.6132-.6661.8911-1.5132.7764-2.391-.1147-.9-.6264-1.7029-1.4029-2.2058zm-2.0867 11.0773c-.472 0-.8558.3838-.8558.8558s.3838.8514.8558.8514.8558-.3838.8558-.8514-.3838-.8558-.8558-.8558zm-.0706.8558c0-.0397.0309-.075.0706-.075s.0706.0309.0706.075c0 .0794-.1456.0794-.1456 0z" fill="#52b2d6"/></svg>