<svg fill="none" height="33" viewBox="0 0 33 33" width="33" xmlns="http://www.w3.org/2000/svg" xmlns:xlink="http://www.w3.org/1999/xlink"><clipPath id="a"><path d="m0 0h33v33h-33z"/></clipPath><g clip-path="url(#a)"><path d="m10.7925 33-.3177-.0799c-.51947-.1348-1.04901-.3046-1.58359-.5143l-.30764-.1199-.29755-3.5903c-.47406-.2896-.92795-.6142-1.35158-.9688l-3.54035.829-.21181-.2547c-.34294-.4095-.67075-.8589-.97839-1.3383l-.17651-.2746 1.88616-3.076c-.21181-.5094-.38832-1.0387-.5144-1.573l-3.3537509-1.3882-.020173-.3246c-.0151296-.2746-.0252161-.5492-.0252161-.8239 0-.2746.0100865-.5493.0252161-.8239l.020173-.3246 3.3537509-1.3882c.13112-.5343.30259-1.0636.5144-1.573l-1.88616-3.076.17651-.2746c.31268-.4794.64049-.9288.97839-1.3383l.21181-.2547 3.54035.829c.42363-.3546.87248-.6792 1.35158-.9688l.29755-3.59032.30764-.11985c.53458-.20972 1.06916-.3795 1.58359-.51433l.3177-.0799 2.3703 2.73146c.5548-.03994 1.1146-.03994 1.6744 0l2.3703-2.73146.3177.0799c.5144.12983 1.049.30461 1.5836.51433l.3076.11985.2976 3.59032c.474.2896.9279.6142 1.3516.9688l3.5403-.829.2118.2497c.343.4095.6708.8589.9784 1.3383l.1765.2746-1.8861 3.076c.2118.5144.3883 1.0387.5144 1.573l3.3537 1.3882.0202.3246c.0151.2746.0252.5493.0252.8239 0 .2747-.0101.5543-.0252.8239l-.0202.3246-3.3537 1.3882c-.1312.5343-.3026 1.0587-.5144 1.573l1.8861 3.076-.1765.2746c-.3127.4794-.6405.9288-.9784 1.3383l-.2118.2547-3.5403-.8289c-.4237.3545-.8725.6791-1.3516.9687l-.2976 3.5903-.3076.1199c-.5346.2097-1.0692.3795-1.5836.5143l-.3177.0799-2.3703-2.7314c-.5548.0399-1.1196.0399-1.6744 0l-2.3703 2.7314zm4.4885-3.825 2.2946 2.6415c.2774-.0798.5548-.1697.8423-.2746l.2874-3.4755.2371-.1398c.585-.3346 1.1296-.7291 1.6239-1.1685l.2068-.1848 3.4293.804c.1766-.2247.3531-.4644.5195-.7091l-1.8256-2.9761.1109-.2497c.2723-.6092.4842-1.2484.6203-1.8925l.0555-.2697 3.2478-1.3433c.0051-.1448.0101-.2896.0101-.4394s0-.2946-.0101-.4394l-3.2478-1.3433-.0555-.2696c-.1412-.6442-.348-1.2784-.6203-1.8926l-.1109-.2496 1.8256-2.9762c-.1664-.2447-.3429-.4844-.5195-.7091l-3.4293.804-.2068-.1848c-.4993-.4394-1.044-.8339-1.6239-1.1685l-.2371-.1398-.2874-3.47547c-.2825-.10487-.5649-.19475-.8423-.27465l-2.2946 2.64158-.2774-.02497c-.6657-.06491-1.3465-.06491-2.0122 0l-.2774.02497-2.2947-2.64158c-.2774.0799-.55475.16978-.84221.27465l-.28746 3.47547-.23704.1398c-.58501.3346-1.12968.7291-1.62392 1.1685l-.20677.1848-3.42939-.804c-.17652.2247-.35303.4644-.51946.7091l1.82565 2.9762-.11095.2496c-.27233.6092-.4791 1.2434-.62032 1.8926l-.06051.2696-3.24784 1.3433c-.00505.1448-.01009.2896-.01009.4394s0 .2946.01009.4394l3.24784 1.3433.06051.2697c.14122.6441.34799 1.2833.62032 1.8925l.11095.2497-1.82565 2.9761c.16643.2447.34294.4844.51946.7091l3.42939-.804.20677.1848c.49928.4394 1.04395.8339 1.62392 1.1685l.23704.1398.28746 3.4755c.28242.1049.56481.1948.84221.2746l2.2947-2.6415.2774.0249c.6657.065 1.3465.065 2.0122 0zm-1.281-3.4106c-3.4849 0-6.32421-2.8064-6.32421-6.2619s2.83431-6.2619 6.32421-6.2619 6.3242 2.8064 6.3242 6.2619-2.8343 6.2619-6.3242 6.2619zm0-11.4701c-2.8999 0-5.26513 2.3369-5.26513 5.2132s2.36023 5.2132 5.26513 5.2132 5.2651-2.3369 5.2651-5.2132-2.3602-5.2132-5.2651-5.2132z" fill="#4bb3d6"/></g></svg>