<svg fill="none" height="33" viewBox="0 0 33 33" width="33" xmlns="http://www.w3.org/2000/svg"><path d="m20.7336 3c-.3497 0-.6331.28336-.6331.63304s.2834.63304.6331.63304h7.102l-7.1322 7.13222c-2.2006-1.98954-5.1065-3.21341-8.3018-3.21341-6.83686 0-12.40156948 5.56471-12.40156948 12.40751 0 6.8429 5.56470948 12.4076 12.40756948 12.4076 6.8428 0 12.4075-5.5647 12.4075-12.4076 0-3.1953-1.2238-6.1012-3.2134-8.3018l7.1323-7.13224v7.10214c0 .3496.2833.633.633.633s.633-.2834.633-.633v-9.2605zm-8.326 28.7339c-6.1435 0-11.14149-4.998-11.14149-11.1415 0-6.1434 4.99799-11.14144 11.14149-11.14144s11.1415 4.99804 11.1415 11.14144c0 6.1435-4.998 11.1415-11.1415 11.1415z" fill="#52b2d6"/></svg>