<svg fill="none" height="33" viewBox="0 0 33 33" width="33" xmlns="http://www.w3.org/2000/svg"><path d="m18.777 18.5193c2.0792-2.0506 3.223-4.7707 3.223-7.67 0-2.89928-1.1438-5.62462-3.223-7.66995-4.2867-4.23825-11.26728-4.23825-15.55397-.00527-2.0792 2.0506-3.22303 4.77067-3.22303 7.67002 0 2.8993 1.14383 5.6246 3.22303 7.6699 2.00438 1.9768 4.59135 3.0153 7.21577 3.1471v4.7601h-4.9869c-.31001 0-.56123.2478-.56123.5535 0 .3058.25122.5535.56123.5535h4.9869v4.9183c0 .3057.2512.5535.5612.5535s.5612-.2478.5612-.5535v-4.9183h4.9869c.31 0 .5612-.2477.5612-.5535 0-.3057-.2512-.5535-.5612-.5535h-4.9869v-4.7601c2.6244-.1318 5.2167-1.1703 7.2158-3.1471zm-17.65455-7.6752c0-2.60415 1.02624-5.05011 2.89164-6.88985 1.9242-1.89772 4.45773-2.84658 6.98591-2.84658 2.5282 0 5.0564.94886 6.9859 2.84658 1.8654 1.83974 2.8917 4.2857 2.8917 6.88985 0 2.6041-1.0263 5.05-2.8917 6.8898-3.8537 3.8007-10.11807 3.8007-13.97181 0-1.8654-1.8398-2.89164-4.2857-2.89164-6.8898z" fill="#52b2d6"/></svg>