<svg viewBox="0 0 512 512" xmlns="http://www.w3.org/2000/svg" xmlns:xlink="http://www.w3.org/1999/xlink"><linearGradient id="a" gradientUnits="userSpaceOnUse" x1="0" x2="512" y1="0" y2="512"><stop offset="0" stop-color="#6bc8c6"/><stop offset="1" stop-color="#02b7bd"/></linearGradient><path d="m0 0h512v512h-512z" fill="url(#a)"/><g fill="#fff"><path d="m354.38 116.3h-15v-16.03c0-8.11-6.58-14.69-14.69-14.69h-.31c-8.11 0-14.69 6.58-14.69 14.69v16.03h-15c-8.11 0-14.69 6.58-14.69 14.69v.31c0 8.11 6.58 14.69 14.69 14.69h15v13.97c0 8.11 6.58 14.69 14.69 14.69h.31c8.12 0 14.69-6.58 14.69-14.69v-13.97h15c8.11 0 14.69-6.58 14.69-14.69v-.31c0-8.11-6.58-14.69-14.69-14.69z"/><path d="m338.82 208.97c0-.81-.09-1.6-.25-2.36-1.29-6.79-7.22-11.93-14.35-11.93h-.31c-8.08 0-14.63 6.58-14.63 14.69v23.2c-.37 9.06-2.63 17.26-6.96 24.51-4.74 7.94-11.24 14.18-19.48 18.71-8.25 4.54-17.63 6.81-28.15 6.81s-19.18-2.27-27.22-6.81c-8.05-4.53-14.49-10.77-19.33-18.71-4.85-7.93-7.27-16.96-7.27-27.07v-130.4c0-7.75-6.28-14.03-14.04-14.03h-1.62c-7.75 0-14.04 6.28-14.04 14.03v131.35c0 16.29 3.71 30.52 11.14 42.68 7.42 12.17 17.42 21.55 30 28.15 12.58 6.61 26.7 9.9 42.38 9.9s29.85-3.3 42.53-9.9 22.78-15.97 30.31-28.15c7.52-12.16 11.29-26.39 11.29-42.68v-15.19l.02-.04v-6.34c0-.08-.02-.16-.02-.24v-.17z"/><path d="m80.9 390.76c0 2.2.58 4.22 1.73 6.06s2.67 3.3 4.56 4.37 4.01 1.61 6.37 1.61 4.65-.54 6.6-1.61c1.94-1.07 3.48-2.53 4.6-4.37s1.69-3.86 1.69-6.06v-35.74h8.82v35.97c0 4.04-.97 7.61-2.91 10.7s-4.55 5.5-7.82 7.21-6.93 2.57-10.97 2.57-7.62-.86-10.89-2.57-5.87-4.12-7.79-7.21-2.88-6.66-2.88-10.7v-35.97h8.9v35.74z"/><path d="m135.66 378.41.77 9.2-.31-1.3c.87-1.94 2.11-3.61 3.72-4.99s3.27-2.45 4.99-3.22c1.71-.77 3.11-1.15 4.18-1.15l-.38 8.59c-2.45-.2-4.59.23-6.4 1.3-1.82 1.07-3.23 2.52-4.26 4.33-1.02 1.82-1.53 3.72-1.53 5.71v13.96h-8.51v-32.44h7.75z"/><path d="m153.69 394.29c0-3.27.78-6.22 2.34-8.86 1.56-2.63 3.72-4.7 6.48-6.21s5.91-2.26 9.43-2.26 6.79.76 9.47 2.26c2.68 1.51 4.76 3.58 6.21 6.21 1.46 2.63 2.19 5.59 2.19 8.86s-.73 6.23-2.19 8.86-3.54 4.72-6.25 6.25-5.88 2.3-9.51 2.3-6.66-.7-9.4-2.11-4.88-3.41-6.44-6.02-2.34-5.7-2.34-9.28zm8.66.07c0 1.89.41 3.62 1.23 5.18s1.94 2.8 3.37 3.72 3.02 1.38 4.76 1.38c1.89 0 3.54-.46 4.95-1.38s2.5-2.16 3.3-3.72c.79-1.56 1.19-3.28 1.19-5.18s-.4-3.69-1.19-5.25-1.89-2.8-3.3-3.72-3.06-1.38-4.95-1.38c-1.79 0-3.39.47-4.79 1.42-1.41.95-2.52 2.19-3.34 3.72s-1.23 3.27-1.23 5.22z"/><path d="m200.7 410.85v-55.84h15.88c5.52 0 10.24.84 14.15 2.53s7.07 3.91 9.47 6.67 4.15 5.84 5.25 9.24 1.65 6.81 1.65 10.24c0 4.19-.74 7.95-2.22 11.27s-3.52 6.17-6.1 8.55-5.55 4.19-8.9 5.45c-3.35 1.25-6.89 1.88-10.62 1.88h-18.56zm8.98-8.59h7.98c2.97 0 5.68-.42 8.13-1.27 2.45-.84 4.59-2.07 6.4-3.68s3.22-3.62 4.22-6.02 1.5-5.14 1.5-8.21c0-3.48-.58-6.45-1.73-8.94-1.15-2.48-2.66-4.5-4.53-6.06s-3.9-2.71-6.1-3.45-4.37-1.11-6.52-1.11h-9.36v38.73z"/><path d="m270.8 411.7c-3.02 0-5.77-.64-8.25-1.92s-4.44-3.18-5.87-5.71-2.15-5.66-2.15-9.39.75-6.84 2.26-9.47 3.5-4.67 5.98-6.1 5.18-2.15 8.09-2.15c3.12 0 5.64.63 7.55 1.88 1.92 1.25 3.41 2.7 4.49 4.33l-.46 1.23.84-5.98h7.9v32.44h-8.59v-7.9l.84 2.07c-.15.31-.55.81-1.19 1.5s-1.5 1.44-2.57 2.26-2.34 1.51-3.8 2.07-3.16.84-5.1.84zm2.38-7.06c1.58 0 3.02-.28 4.29-.84 1.28-.56 2.35-1.35 3.22-2.38.87-1.02 1.51-2.25 1.92-3.68v-7.06c-.41-1.33-1.07-2.49-1.99-3.49s-2.03-1.78-3.34-2.34c-1.3-.56-2.75-.84-4.33-.84-1.79 0-3.41.44-4.87 1.3-1.46.87-2.63 2.07-3.53 3.61-.9 1.53-1.34 3.3-1.34 5.29s.46 3.71 1.38 5.29c.92 1.59 2.15 2.84 3.68 3.76s3.17 1.38 4.91 1.38z"/><path d="m322.73 411.7c-2.25 0-4.42-.49-6.52-1.46s-3.78-2.3-5.06-3.99l.38-2.61v22.78h-8.51v-48.63h7.44l1.15 7.52-.77-2.3c1.58-1.74 3.51-3.18 5.79-4.33 2.27-1.15 4.84-1.73 7.71-1.73 3.07 0 5.8.72 8.21 2.15 2.4 1.43 4.29 3.46 5.68 6.1 1.38 2.63 2.07 5.74 2.07 9.32s-.75 6.65-2.26 9.2c-1.51 2.56-3.59 4.53-6.25 5.91s-5.68 2.07-9.05 2.07zm-1.69-6.83c1.89 0 3.64-.43 5.25-1.3s2.9-2.08 3.87-3.64 1.46-3.31 1.46-5.25c0-2.04-.45-3.85-1.34-5.41-.9-1.56-2.1-2.79-3.61-3.68s-3.18-1.34-5.02-1.34c-1.69 0-3.2.28-4.53.84s-2.45 1.37-3.37 2.42-1.64 2.29-2.15 3.72v6.52c.36 1.38.97 2.62 1.84 3.72s1.97 1.94 3.3 2.53 2.76.88 4.3.88z"/><path d="m352.56 364.14h8.59v14.27h8.44v6.75h-8.44v25.69h-8.59v-25.69h-5.6v-6.75h5.6z"/><path d="m393.52 411.7c-3.83 0-7.11-.74-9.82-2.22s-4.78-3.53-6.21-6.14-2.15-5.6-2.15-8.97.82-6.15 2.45-8.78c1.64-2.63 3.85-4.73 6.63-6.29 2.79-1.56 5.87-2.34 9.24-2.34 4.45 0 8.12 1.29 11.01 3.87s4.82 6.23 5.79 10.93l-26.15 8.82-1.99-4.83 20.48-7.29-1.84 1c-.51-1.53-1.41-2.88-2.68-4.03-1.28-1.15-3.04-1.73-5.29-1.73-1.79 0-3.37.44-4.75 1.3-1.38.87-2.47 2.06-3.26 3.57s-1.19 3.29-1.19 5.33c0 2.15.43 4 1.3 5.56s2.04 2.76 3.53 3.6c1.48.84 3.17 1.27 5.06 1.27 1.33 0 2.59-.23 3.8-.69 1.2-.46 2.36-1.07 3.49-1.84l3.91 6.37c-1.69 1.07-3.54 1.93-5.56 2.57s-3.95.96-5.79.96z"/><path d="m426.65 378.41.77 9.2-.31-1.3c.87-1.94 2.11-3.61 3.72-4.99s3.27-2.45 4.99-3.22c1.71-.77 3.11-1.15 4.18-1.15l-.38 8.59c-2.45-.2-4.59.23-6.4 1.3-1.82 1.07-3.23 2.52-4.26 4.33-1.02 1.82-1.53 3.72-1.53 5.71v13.96h-8.51v-32.44h7.75z"/></g></svg>