<svg fill="none" viewBox="0 0 267 48" xmlns="http://www.w3.org/2000/svg"><path d="m23.3053 24.3137c0 1.6989-.4024 3.2181-1.2002 4.554s-1.8956 2.3862-3.2829 3.1511c-1.3908.7649-2.9723 1.1455-4.7444 1.1455s-3.2335-.3806-4.58904-1.1455-2.44279-1.8152-3.25823-3.1511-1.22493-2.8551-1.22493-4.554v-24.3137h-5.0056v24.4688c0 2.7422.624818 5.1391 1.87798 7.1834 1.25317 2.0479 2.937 3.627 5.05856 4.7373 2.12155 1.1103 4.50076 1.6672 7.14476 1.6672s5.0304-.5569 7.1696-1.6672c2.1356-1.1103 3.8407-2.6894 5.1079-4.7373 1.2673-2.0478 1.9027-4.4412 1.9027-7.1834v-24.4688h-4.9526v24.3137zm20.4002-6.1683c-.9567.8318-1.7086 1.8258-2.2522 2.9819l-.3777-5.0404h-4.3278v21.5539h4.7973v-9.8411c0-1.3888.3565-2.6894 1.0696-3.9054.7131-1.2161 1.6874-2.1889 2.9193-2.915 1.232-.7261 2.6687-1.0398 4.3032-.9376l.2612-4.7901c-.8684 0-1.8851.2538-3.05.7543-1.1649.504-2.2769 1.216-3.3359 2.136zm28.0109-1.4311c-1.7721-1.008-3.8407-1.5121-6.2058-1.5121-2.3652 0-4.3455.5041-6.1529 1.5121-1.8074 1.0081-3.2265 2.3757-4.2502 4.1134s-1.5391 3.6799-1.5391 5.83c0 2.3263.5119 4.346 1.5391 6.066 1.0237 1.7166 2.4322 3.056 4.2255 4.0077 1.7897.9552 3.8336 1.431 6.1281 1.431 2.2946 0 4.4408-.504 6.2306-1.5086 1.7897-1.008 3.1735-2.3862 4.1442-4.138.9743-1.7518 1.4615-3.7045 1.4615-5.8581 0-2.1537-.4872-4.0958-1.4615-5.83-.9743-1.7341-2.3474-3.1053-4.1195-4.1134zm-.2083 13.7677c-.593 1.1279-1.4155 2.0232-2.4746 2.6823-1.0625.6592-2.2698.987-3.6253.987-1.285 0-2.4605-.3314-3.5195-.987-1.059-.6591-1.9027-1.5544-2.5275-2.6823s-.939-2.3862-.939-3.775c0-1.3887.3036-2.5942.9143-3.7221.6072-1.1279 1.4403-2.0373 2.5028-2.7352 1.059-.6944 2.2522-1.0398 3.5724-1.0398s2.5628.3383 3.6254 1.0151c1.059.6767 1.885 1.5791 2.4745 2.707.5896 1.1279.8861 2.3863.8861 3.775 0 1.3888-.2965 2.6471-.8861 3.775zm39.4799-24.23615c-1.599-1.87516-3.71-3.38376-6.336-4.5293-2.627-1.145541-5.7966-1.71655-9.5173-1.71655h-10.2724v37.6408h12.0974c2.5028 0 4.8753-.4265 7.1163-1.276 2.242-.8494 4.233-2.0725 5.97-3.6692 1.736-1.5968 3.102-3.5213 4.091-5.7806.992-2.2559 1.486-4.8078 1.486-7.6523 0-2.2558-.374-4.5222-1.122-6.7957-.749-2.2734-1.921-4.34598-3.52-6.22115zm-1.617 18.56135c-.73 1.7165-1.747 3.1687-3.05 4.346-1.302 1.1808-2.834 2.0831-4.589 2.707-1.7541.6239-3.6744.9376-5.7607.9376h-6.0505v-27.9548h6.52c1.8427 0 3.5972.30313 5.2672.90939 1.669.60978 3.163 1.50154 4.483 2.68233s2.361 2.64708 3.127 4.39888c.763 1.7518 1.148 3.7926 1.148 6.1154 0 2.1889-.364 4.1381-1.095 5.8582zm30.599-5.2836c-.72-1.1174-1.712-2.1008-2.987-2.9432-1.39-.9199-3.096-1.3782-5.108-1.3782s-3.865.4688-5.552 1.4064c-1.688.9376-3.033 2.284-4.042 4.0358-1.01 1.7554-1.511 3.8279-1.511 6.2212s.476 4.487 1.433 6.1683c.957 1.6849 2.259 2.9608 3.911 3.8279s3.484 1.3006 5.5 1.3006c1.253 0 2.379-.1833 3.389-.5463 1.01-.3666 1.903-.8248 2.686-1.3782.784-.5534 1.409-1.1032 1.878-1.639.149-.1727.276-.3278.392-.4793v3.5247h4.847v-21.5538h-4.483l-.353 3.4366zm-.014 9.1079c-.244 1.1456-.689 2.1254-1.331 2.9432-.643.8177-1.451 1.4487-2.425 1.8998-.975.4512-2.069.6768-3.283.6768-1.285 0-2.485-.3314-3.597-.987-1.112-.6591-1.998-1.5614-2.658-2.707-.661-1.1455-.992-2.4109-.992-3.7996 0-1.491.321-2.7916.963-3.9055.643-1.1103 1.504-1.9809 2.581-2.6047 1.076-.6239 2.259-.9376 3.547-.9376 1.183 0 2.26.2185 3.234.6485.974.4336 1.807 1.0433 2.503 1.8223.695.7825 1.182 1.6919 1.461 2.7352v4.2156zm31.424-11.9735c-1.617-.9729-3.431-1.4593-5.45-1.4593s-3.77.4336-5.369 1.3006c-1.455.7896-2.676 1.7659-3.672 2.9291l-.448-3.6587h-4.173v32.2268h4.798v-13.6091c.805 1.0786 1.874 1.9527 3.205 2.6224 1.511.7649 3.085 1.1456 4.72 1.1456 2.224 0 4.215-.4618 5.969-1.3782 1.754-.9199 3.135-2.2276 4.144-3.9301 1.01-1.6989 1.511-3.7115 1.511-6.0379 0-2.3263-.469-4.353-1.408-6.0907-.939-1.7342-2.217-3.0877-3.834-4.0605zm-.702 14.032c-.696 1.1279-1.624 2.0126-2.789 2.6541s-2.443.9623-3.834.9623c-1.147 0-2.217-.2432-3.205-.7297-.988-.4864-1.818-1.1631-2.475-2.0302-.66-.8671-1.076-1.8576-1.253-2.9679v-3.5917c.279-1.1103.749-2.0901 1.409-2.9396s1.493-1.5192 2.503-2.0056c1.009-.4864 2.135-.7296 3.388-.7296 1.356 0 2.581.3313 3.675.9869 1.094.6591 1.973 1.5544 2.634 2.6823.66 1.128.988 2.4215.988 3.8773 0 1.4557-.349 2.6999-1.041 3.8278zm18.575-24.07757h-4.851v9.58027h-3.96v3.7997h3.96v17.6484h4.851v-17.6484h5.944v-3.7997h-5.944zm28.332 11.08887c-1.878-1.6672-4.243-2.4991-7.092-2.4991-2.224 0-4.243.5217-6.05 1.5615-1.808 1.0398-3.252 2.4285-4.328 4.1662-1.077 1.7342-1.617 3.6623-1.617 5.7806 0 2.2206.476 4.191 1.433 5.9075.957 1.7201 2.319 3.0736 4.091 4.0605 1.773.9869 3.894 1.4839 6.362 1.4839 1.284 0 2.598-.2255 3.936-.6767 1.337-.4512 2.545-1.0398 3.621-1.7694l-2.241-3.5918c-.766.557-1.592 1.0081-2.478 1.3535-.886.349-1.797.5217-2.736.5217-1.391 0-2.633-.3207-3.728-.9622-1.027-.6028-1.846-1.424-2.46-2.4568l17.089-6.0026c-.66-2.915-1.931-5.2061-3.806-6.8733zm-14.265 9.9433c-.049-.3842-.074-.7825-.074-1.1984 0-1.424.296-2.6894.886-3.8032.589-1.1103 1.408-1.9845 2.45-2.6295 1.041-.6415 2.224-.9622 3.544-.9622 1.564 0 2.834.4265 3.805 1.2759.9.786 1.557 1.6989 1.981 2.7352l-12.596 4.5822zm30.203-9.5027c-.957.8318-1.709 1.8258-2.252 2.9819l-.378-5.0404h-4.328v21.5538h4.798v-9.841c0-1.3888.356-2.6894 1.069-3.9055.713-1.216 1.688-2.1888 2.92-2.9149 1.232-.7297 2.668-1.0398 4.303-.9376l.261-4.7901c-.868 0-1.885.2537-3.05.7543-1.165.504-2.277 1.216-3.336 2.1359zm24.912-6.7429c.607-.7648.914-1.6143.914-2.55189 0-1.14554-.35-2.0232-1.042-2.62946-.695-.60625-1.669-.90938-2.919-.90938h-4.381v11.08883h2.764v-3.8525h.96l1.543 3.8525h3.128l-1.966-4.2191c.398-.1868.737-.4441 1.002-.7754zm-2.348-1.40634c-.226.27844-.653.41594-1.278.41594h-1.041v-3.02073h1.147c.487 0 .861.14804 1.119.44059.261.29608.392.6697.392 1.12087 0 .41592-.113.76487-.339 1.04333zm8.447-4.58217c-.992-1.63196-2.319-2.91497-3.988-3.85255-1.67-.937585-3.527-1.406376-5.578-1.406376s-3.865.468791-5.553 1.406376c-1.687.93758-3.025 2.22059-4.013 3.85255-.992 1.63195-1.487 3.4895-1.487 5.56911 0 2.0796.495 3.9477 1.487 5.5973.988 1.6496 2.329 2.9431 4.013 3.8807 1.688.9376 3.537 1.4064 5.553 1.4064s3.911-.4758 5.578-1.431c1.669-.9552 2.996-2.2488 3.988-3.8808.989-1.6319 1.487-3.4895 1.487-5.5691 0-2.07959-.498-3.93713-1.487-5.56909zm-2.555 9.76001c-.713 1.2337-1.688 2.1959-2.92 2.8903-1.235.6944-2.615 1.0398-4.144 1.0398-1.528 0-2.859-.3454-4.091-1.0398-1.236-.6944-2.207-1.6566-2.92-2.8903-.713-1.2301-1.069-2.6295-1.069-4.1909 0-1.56148.356-2.95728 1.069-4.19094.713-1.23013 1.688-2.20296 2.92-2.91496s2.598-1.06448 4.091-1.06448 2.912.356 4.144 1.06448c1.232.712 2.207 1.68483 2.92 2.91496.713 1.23014 1.069 2.62946 1.069 4.19094 0 1.5614-.356 2.9608-1.069 4.1909z" fill="#52b2d6"/></svg>